PathFileType	4	(X/Y/Z)	C:/Users/beibeiliu/ov580/test_trc/User1\sequence.29_training_dense_right.trc
DataRate	CameraRate	NumFrames	NumMarkers	Units	OrigDataRate	OrigDataStartFrame	OrigNumFrames
120	120	24	19	mm	120	200	228
Frame#	Time	ThumbCMC			ThumbMCP			ThumbIP			ThumbTip			IndexMCP			IndexPIP			IndexTip			MiddleMCP			MiddlePIP			MiddleTip			RingMCP			RingPIP			RingTip			PinkyMCP			PinkyPIP			PinkyTip			BackHand1			BackHand2			BackHand3	
		X0	Y0	Z0	X1	Y1	Z1	X2	Y2	Z2	X3	Y3	Z3	X4	Y4	Z4	X5	Y5	Z5	X6	Y6	Z6	X7	Y7	Z7	X8	Y8	Z8	X9	Y9	Z9	X10	Y10	Z10	X11	Y11	Z11	X12	Y12	Z12	X13	Y13	Z13	X14	Y14	Z14	X15	Y15	Z15	X16	Y16	Z16	X17	Y17	Z17	X18	Y18	Z18	
199	1.65833	150.234	-50.7756	57.6425	153.08	-76.8023	29.5646	160.701	-83.3324	4.32336	169.432	-95.1133	-14.1116	156.345	-17.6871	-18.1549	154.511	-16.2718	-41.2338	162.683	-11.2312	-65.9674	179.87	0.120016	-20.8163	181.871	0.668484	-46.059	193.953	5.55442	-77.4925	201.181	8.42404	-4.59329	201.965	19.1001	-29.7725	209.017	30.2234	-51.8403	224.904	3.60848	20.601	233.283	18.6096	5.4396	234.207	36.0161	-4.69986	194.009	2.29532	43.7398	186.936	1.11791	79.9431	154.688	-11.7059	56.1194	
200	1.66667	149.787	-51.884	60.4599	153.51	-76.1753	34.9629	159.871	-83.966	4.61878	168.599	-95.3317	-14.4639	153.555	-18.5198	-15.0988	156.351	-13.6794	-42.3736	162.256	-9.19786	-65.9793	182.516	-1.87803	-21.6497	186.437	-0.739774	-46.8342	195.659	0.984211	-76.4732	202.965	8.22619	-5.11956	207.739	18.8176	-29.6835	212.617	29.7857	-53.0749	226.384	3.38437	20.9124	232.804	16.3454	4.03947	235.322	35.5546	-4.56678	189.306	0.296585	45.0423	189.825	1.0614	82.4426	158.544	-10.7212	56.0862	
201	1.675	146.637	-52.4122	63.2308	151.123	-75.8705	31.2444	157.571	-83.2925	8.23819	168.32	-93.437	-14.3606	152.886	-17.2845	-13.5443	156.922	-11.0733	-41.3574	160.697	-7.36771	-65.0048	183.56	-2.91465	-20.2673	183.346	-4.28971	-48.7931	195.644	-4.38456	-80.289	204.1	6.74321	-2.99637	209.187	17.4628	-26.8324	209.668	25.4849	-52.1502	224.878	1.28927	20.4349	232.661	13.8492	8.1039	235.955	34.0767	-5.24503	194.958	1.11642	46.1287	187.083	0.911416	79.3752	156.563	-13.6794	58.7398	
202	1.68333	147.732	-51.1578	60.4762	151.729	-74.9808	33.4399	157.553	-82.5605	4.62582	169.672	-88.5293	-15.3168	150.924	-14.9128	-16.1318	155.909	-10.3094	-40.6455	161.47	-4.371	-64.9444	179.587	-6.03238	-18.7679	187.063	-6.73076	-49.7561	193.57	-12.7703	-76.8704	200.761	5.51702	-6.48545	208.14	15.719	-30.9519	212.135	22.0149	-51.4103	226.137	1.6996	19.5051	230.613	12.8856	5.41495	235.914	33.1637	-3.00216	193.128	1.23431	49.3115	192.082	-0.375335	79.7106	158.607	-11.6265	58.5107	
203	1.69167	144.365	-51.7893	59.294	148.827	-75.7695	32.6906	158.37	-80.5165	4.72721	167.971	-89.5431	-17.0394	151.688	-14.1644	-15.9975	152.713	-9.75071	-39.2291	157.246	-3.69682	-67.221	182.103	-6.90165	-23.4553	186.833	-12.4076	-49.393	198.189	-20.2233	-78.0313	204.322	4.4557	-6.27033	207.533	13.2756	-33.4657	214.025	19.9605	-55.6067	225.059	1.62453	15.7458	231.594	11.9598	2.59322	234.767	29.8324	-3.60876	193.521	0.00389484	47.7238	194.02	-0.313091	84.0461	157.724	-9.24814	57.3586	
204	1.7	147.19	-51.7525	63.4557	151.865	-72.7722	32.6059	156.234	-80.438	4.7611	166.31	-89.0643	-14.6999	154.414	-11.6281	-15.3279	153.385	-9.03979	-40.1713	161.046	-2.06009	-66.2531	183.831	-8.45316	-21.8659	189.995	-15.3556	-48.7893	195.198	-27.1565	-77.2682	202.58	3.79976	-9.49099	210.044	11.6279	-33.7547	209.941	16.1947	-56.9596	224.553	-1.19787	17.6906	234.977	10.5668	5.47712	234.465	28.5479	-3.65737	195.089	-2.77081	48.7808	193.438	-1.86523	81.1529	159.349	-10.7261	59.5908	
205	1.70833	147.453	-51.7496	62.5043	147.681	-75.3087	33.9657	155.967	-79.702	5.94045	167.486	-84.6388	-15.6497	154.084	-12.8254	-14.7459	154.116	-9.06517	-40.2994	159.015	-4.64747	-59.8931	182.927	-10.6585	-18.1066	188.308	-19.9082	-46.7823	197.319	-34.8453	-77.7231	204.703	2.92843	-8.98884	205.779	6.74603	-31.391	208.228	10.2464	-55.9324	222.371	-4.60842	18.7224	231.471	8.0161	5.38984	233.574	28.8344	-4.47511	197.038	-0.354409	48.9291	190.751	-3.52005	83.6692	160.574	-9.33935	60.2012	
206	1.71667	146.658	-50.6849	61.9899	150.049	-73.5415	30.6961	157.054	-79.1305	1.84402	167.393	-85.0968	-17.5934	154.311	-12.0585	-13.6017	154.307	-10.2187	-37.4723	160.074	-4.09682	-62.347	181.237	-11.0158	-17.8731	188.007	-21.5744	-46.2124	193.965	-39.0229	-74.3866	203.153	0.43668	-5.72767	207.263	5.69407	-35.2103	210.734	10.38	-59.4841	223.057	-4.31927	18.1107	229.531	8.70314	2.32483	233.047	26.3608	-4.42091	192.922	-2.46489	48.7221	194.691	-3.80717	80.7659	162.246	-10.8058	59.8999	
207	1.725	147.334	-51.7786	64.5058	151.952	-71.2223	31.0066	155.567	-78.5747	1.79203	166.281	-85.331	-17.4227	151.599	-12.4733	-13.7624	155.841	-8.81188	-37.842	160.004	-6.54595	-60.9419	180.633	-13.8988	-23.0232	186.245	-23.5573	-46.0368	191.769	-43.061	-74.418	202.16	-1.28413	-5.99143	206.245	4.04501	-37.1325	208.79	6.86155	-56.8115	222.351	-5.86522	17.7473	233.62	8.4836	3.89898	232.785	26.2535	-5.08427	193.77	-1.89502	49.4701	195.919	-3.45135	85.2374	160.99	-9.88218	63.416	
208	1.73333	146.595	-51.3293	63.0423	149.379	-72.9995	32.4825	156.475	-75.775	2.13906	165.618	-82.2745	-21.5494	150.626	-12.4934	-11.695	152.811	-10.7221	-34.9178	159.069	-5.56118	-65.4118	178.404	-13.9893	-22.2703	186.276	-24.0079	-46.6344	192.794	-42.7176	-71.6669	199.432	-1.16091	-7.35076	202.775	1.50029	-31.7212	208.208	6.03576	-57.2821	223.736	-2.92426	14.0156	232.787	5.71889	6.28053	232.806	25.2102	-4.33942	193.447	-4.18455	49.2544	193.856	-3.48568	81.4809	162.275	-9.36174	59.2546	
209	1.74167	145.114	-52.0304	63.8657	150.364	-71.0174	30.555	156.706	-75.0958	4.43177	166.043	-81.5908	-20.7812	151.263	-13.0248	-9.9528	155.427	-10.4957	-37.4912	160.9	-7.32149	-60.876	180.655	-12.5144	-18.9179	186.574	-24.2896	-47.2396	189.966	-44.4943	-72.0246	200.01	-0.20489	-7.94966	206.402	4.39676	-37.6924	209.668	7.76355	-61.9871	223.294	-3.27505	14.6615	231.506	9.01955	1.76353	233.919	26.4836	-4.02995	197.881	-2.31773	47.7434	197.109	-5.01283	82.0917	164.615	-9.65275	60.3931	
210	1.75	149.712	-49.1044	64.9102	152.225	-68.1321	29.9908	158.308	-73.6404	2.62101	164.607	-82.9677	-15.7581	151.508	-12.4183	-13.7546	155.962	-10.1335	-36.2747	158.083	-7.39244	-65.8634	181.657	-12.0464	-23.7478	181.714	-23.9173	-49.1303	190.998	-41.5173	-71.9281	201.454	0.276161	-6.19618	203.358	3.86129	-36.0497	206.134	7.31141	-59.308	224.414	-4.98611	18.2589	231.699	6.73594	2.77041	235.16	26.1374	-5.67163	194.207	-3.63137	48.9967	194.466	-3.52298	84.5112	161.977	-9.15568	62.1332	
211	1.75833	145.637	-51.0226	62.6949	147.403	-72.9892	32.9545	153.395	-77.4196	2.74327	162.45	-85.2062	-19.2279	151.452	-12.1876	-15.2123	153.593	-9.47685	-38.3099	157.878	-7.41172	-66.6646	178.215	-9.55126	-19.8831	183.139	-20.1972	-46.9583	190.29	-37.1693	-73.4781	200.455	0.169348	-9.97537	207.674	6.43937	-34.836	211.559	9.56414	-58.6974	226.276	-3.17892	16.0645	230.963	4.0983	5.12297	238.595	27.4773	-3.85872	194.034	-1.97247	47.0457	197.471	-5.39592	83.6007	163.24	-7.68628	60.1175	
212	1.76667	145.586	-50.5426	60.7917	151.371	-70.376	33.2559	153.062	-78.4849	3.01067	162.849	-85.295	-20.1016	151.157	-11.2338	-13.8331	153.725	-9.79953	-36.3758	157.559	-6.2815	-65.6652	180.735	-7.62142	-22.8606	181.646	-16.5984	-46.5187	190.992	-30.0766	-74.5792	206.709	2.43446	-9.81615	207.489	7.15116	-35.1621	212.681	11.4488	-58.3353	228.63	-2.77471	15.5087	235.265	7.81136	4.19917	241.852	27.115	-3.98314	195.411	-1.61849	49.276	194.618	-5.79641	80.6843	162.001	-9.33298	60.8373	
213	1.775	147.674	-49.2001	62.4554	149.073	-69.9167	28.5245	154.935	-76.7686	1.30541	164.307	-82.9715	-22.3232	151.855	-10.9696	-10.6469	153.536	-7.91752	-37.1752	157.24	-4.39329	-66.7575	180.368	-4.1528	-18.4309	183.267	-10.0987	-48.3913	193.285	-22.5035	-79.5655	203.49	3.14723	-9.35939	210.03	8.1677	-32.1476	212.855	14.1093	-59.7169	227.537	-3.32292	16.9215	238.134	7.61396	4.89955	240.111	26.1261	-5.14288	197.402	-1.23562	51.9467	197.568	-4.76395	84.6572	162.057	-9.19887	64.4388	
214	1.78333	146.797	-50.092	63.293	151.294	-69.0668	32.9572	153.901	-76.9287	1.01426	161.863	-85.889	-18.9476	152.619	-9.59503	-12.458	156.243	-6.04122	-37.7388	158.243	-3.99189	-65.6852	179.366	-2.50061	-19.2654	185.899	-4.52025	-45.7577	188.464	-12.8269	-77.9589	204.759	4.60115	-8.50766	211.453	11.7812	-33.1087	216.644	16.1154	-54.9366	230.648	-2.14015	17.8449	237.633	9.74409	3.23176	242.372	28.4042	-5.71204	200.434	0.0596113	47.8657	200.252	-2.02714	82.2018	166.241	-9.22316	63.4234	
215	1.79167	147.613	-48.5058	61.1203	150.059	-67.9981	28.6765	154.002	-75.3861	3.35645	160.84	-84.7605	-20.0223	155.677	-7.40552	-14.2475	155.404	-3.69701	-40.0358	159.996	-2.41964	-65.6296	179.037	-0.134321	-20.8416	184.126	0.195727	-45.7279	191.028	-3.6284	-78.1943	209.726	5.0066	-6.9161	211.394	12.8782	-34.2769	215.996	16.425	-53.9021	229.52	-1.14476	16.7295	239.635	8.33365	7.0584	242.693	26.7615	-1.90695	198.595	-1.46284	49.9707	198.172	-3.86992	82.4515	162.648	-7.51869	60.724	
216	1.8	145.463	-48.5322	60.9319	150.48	-67.5507	30.2508	156.035	-73.3319	1.1464	161.355	-82.9197	-21.8983	153.688	-7.48055	-12.7437	156.085	-3.75308	-38.9167	161.731	-0.406633	-65.5988	179.389	2.1931	-15.6173	185.203	4.10837	-48.6618	185.79	1.94495	-76.6979	207.183	6.33986	-8.32323	213.534	12.7865	-30.3811	217.35	18.6686	-57.3878	229.998	-2.09639	17.0088	237.596	9.6664	2.68473	247.165	29.968	-4.12471	197.582	0.282066	47.3298	200.203	-1.92414	80.4255	166.399	-8.78107	63.4025	
217	1.80833	147.105	-47.4786	61.7879	147.532	-68.0828	30.3596	152.985	-73.5904	-0.768665	162.785	-81.1033	-18.8822	151.47	-6.30357	-12.8317	153.242	-3.02323	-39.9032	159.795	0.484206	-66.7124	182.458	5.72383	-18.7567	185.613	8.53227	-46.1106	189.293	9.03943	-78.1714	208.553	6.71654	-8.47553	216.659	13.9135	-32.0833	218.09	19.2335	-55.7707	230.986	-1.79316	17.368	238.979	8.54537	5.01215	241.568	28.4433	-3.70116	200.649	-1.97987	49.5167	200.219	-1.48271	79.7625	165.996	-7.52802	60.9195	
218	1.81667	147.057	-45.8612	61.6883	148.287	-66.0587	28.089	152.419	-72.2428	-1.80262	160.168	-80.9431	-22.0751	152.453	-5.7633	-12.923	153.584	-2.44765	-40.6839	161.414	2.71103	-67.7288	179.866	7.21067	-16.6715	185.863	12.2238	-45.9046	189.347	14.8565	-76.2838	209.724	6.40964	-9.04716	217.805	13.6891	-28.9226	221.648	18.1258	-54.4924	227.54	-1.73321	16.9675	239.148	7.20187	7.92107	242.144	30.1339	-6.1909	198.911	0.608301	51.5638	196.929	-1.98287	82.385	167.512	-5.36723	60.6865	
219	1.825	148.529	-46.5702	62.2744	146.109	-67.6481	28.6315	152.069	-71.2842	-1.52506	161.694	-79.8064	-21.9679	156.245	-5.15175	-11.7474	156.84	-0.673804	-41.3728	160.601	3.05915	-64.5349	181.403	9.80707	-16.7306	185.025	13.7166	-42.3396	187.819	17.6511	-72.0025	212.637	6.64556	-8.04543	216.507	12.2496	-31.4602	221.519	17.6303	-56.1081	228.396	0.537688	14.9522	235.846	7.6472	5.88478	242.435	28.0843	-3.19888	200.194	-0.402656	50.0326	196.921	-3.82252	81.897	164.844	-8.63638	63.2868	
220	1.83333	144.474	-45.8778	61.5626	147.595	-64.3488	26.8799	151.944	-72.244	-0.764096	163.842	-77.3364	-24.4009	151.511	-3.93751	-14.6006	153.176	0.193103	-42.3376	156.725	3.7116	-66.8292	183.322	11.5409	-16.5853	182.888	16.1605	-45.3833	191.261	20.2393	-71.7228	209.908	5.50456	-5.03284	219.565	11.0456	-32.0724	223.405	14.1053	-57.0421	228.132	-0.742853	15.0376	240.76	11.5843	5.32099	240.645	29.217	-2.52984	201.733	0.465799	49.3867	197.044	-5.20276	83.8196	165.449	-6.10003	57.5823	
221	1.84167	145.236	-44.5053	59.3739	145.032	-66.1381	28.0885	152.378	-70.3127	1.54071	164.004	-76.1623	-24.3587	154.761	-1.57745	-14.9143	156.519	1.33614	-38.6111	156.666	4.14502	-65.5205	183.816	11.1765	-14.0935	182.044	17.2369	-45.2737	190.079	22.6516	-71.7928	211.863	3.89078	-5.9592	220.631	8.84649	-35.4481	222.804	9.90279	-58.1802	232.393	-0.713838	18.5228	237.173	8.66039	5.3166	245.469	27.6906	-0.0978919	199.76	1.65432	51.4592	196.059	-4.59054	83.4685	165.484	-4.2254	61.3416	
222	1.85	145.989	-43.4143	57.8516	146.703	-63.0214	29.4586	151.556	-68.535	-3.40889	162.38	-76.9361	-22.8742	154.392	-1.50997	-15.5271	157.738	3.03966	-41.7824	158.954	4.38094	-64.4918	182.346	11.6116	-13.5898	183.665	18.8996	-44.1661	188.945	24.3941	-69.5579	211.493	3.89891	-11.5329	220.003	5.17116	-35.7054	226.183	5.05611	-62.5772	232.91	1.32438	14.534	239.303	11.2753	3.0556	241.31	28.0662	-2.79157	202.363	2.35849	49.9268	197.96	-2.98264	79.6133	163.895	-4.71397	57.7349	
